<svg width="42" height="41" viewBox="0 0 42 41" fill="none" xmlns="http://www.w3.org/2000/svg">
<path d="M13.0919 13.103V11.4459C13.0919 7.60216 16.184 3.82674 20.0277 3.46799C21.0957 3.36306 22.1739 3.4829 23.1927 3.8198C24.2116 4.1567 25.1487 4.70319 25.9437 5.42411C26.7386 6.14502 27.3738 7.02439 27.8084 8.00561C28.2429 8.98684 28.4672 10.0482 28.4669 11.1213V13.4788M15.6544 37.5834H25.9044C32.7719 37.5834 34.0019 34.833 34.3606 31.4847L35.6419 21.2347C36.1031 17.0663 34.9073 13.6667 27.6127 13.6667H13.946C6.65145 13.6667 5.45562 17.0663 5.91687 21.2347L7.19812 31.4847C7.55687 34.833 8.78687 37.5834 15.6544 37.5834Z" stroke="black" stroke-width="1.5" stroke-miterlimit="10" stroke-linecap="round" stroke-linejoin="round"/>
<path d="M26.7503 20.5H26.7674M14.792 20.5H14.8057" stroke="black" stroke-width="2" stroke-linecap="round" stroke-linejoin="round"/>
</svg>
