<svg width="30" height="31" viewBox="0 0 30 31" fill="none" xmlns="http://www.w3.org/2000/svg">
<path d="M0.626859 0.675996C1.02836 0.260881 1.57283 0.0276826 2.14055 0.0276826C2.70827 0.0276826 3.25275 0.260881 3.65425 0.675996L14.9866 12.3962L26.319 0.675996C26.5165 0.464509 26.7527 0.295819 27.0139 0.179771C27.2752 0.0637224 27.5561 0.00263848 27.8404 8.36049e-05C28.1247 -0.00247127 28.4066 0.0535535 28.6697 0.16489C28.9328 0.276226 29.1719 0.440644 29.3729 0.648549C29.5739 0.856454 29.7329 1.10368 29.8406 1.37581C29.9482 1.64794 30.0024 1.93952 29.9999 2.23353C29.9974 2.52754 29.9384 2.8181 29.8262 3.08825C29.714 3.3584 29.5509 3.60273 29.3464 3.80699L18.014 15.5272L29.3464 27.2474C29.7364 27.665 29.9522 28.2244 29.9473 28.805C29.9424 29.3855 29.7173 29.9409 29.3203 30.3514C28.9233 30.762 28.3863 30.9949 27.825 30.9999C27.2636 31.005 26.7228 30.7818 26.319 30.3784L14.9866 18.6582L3.65425 30.3784C3.25045 30.7818 2.70962 31.005 2.14826 30.9999C1.58689 30.9949 1.0499 30.762 0.652939 30.3514C0.255979 29.9409 0.0308103 29.3855 0.0259322 28.805C0.0210541 28.2244 0.236857 27.665 0.626859 27.2474L11.9592 15.5272L0.626859 3.80699C0.225482 3.39175 0 2.82864 0 2.2415C0 1.65435 0.225482 1.09124 0.626859 0.675996Z" fill="white"/>
</svg>
