<svg width="20" height="15" viewBox="0 0 20 15" fill="none" xmlns="http://www.w3.org/2000/svg">
<path d="M0 1.25C0 0.918479 0.131696 0.600537 0.366117 0.366117C0.600537 0.131696 0.918479 0 1.25 0H2.5C2.83152 0 3.14946 0.131696 3.38388 0.366117C3.6183 0.600537 3.75 0.918479 3.75 1.25C3.75 1.58152 3.6183 1.89946 3.38388 2.13388C3.14946 2.3683 2.83152 2.5 2.5 2.5H1.25C0.918479 2.5 0.600537 2.3683 0.366117 2.13388C0.131696 1.89946 0 1.58152 0 1.25ZM6.25 1.25C6.25 0.918479 6.3817 0.600537 6.61612 0.366117C6.85054 0.131696 7.16848 0 7.5 0H18.75C19.0815 0 19.3995 0.131696 19.6339 0.366117C19.8683 0.600537 20 0.918479 20 1.25C20 1.58152 19.8683 1.89946 19.6339 2.13388C19.3995 2.3683 19.0815 2.5 18.75 2.5H7.5C7.16848 2.5 6.85054 2.3683 6.61612 2.13388C6.3817 1.89946 6.25 1.58152 6.25 1.25ZM0 7.5C0 7.16848 0.131696 6.85054 0.366117 6.61612C0.600537 6.3817 0.918479 6.25 1.25 6.25H2.5C2.83152 6.25 3.14946 6.3817 3.38388 6.61612C3.6183 6.85054 3.75 7.16848 3.75 7.5C3.75 7.83152 3.6183 8.14946 3.38388 8.38388C3.14946 8.6183 2.83152 8.75 2.5 8.75H1.25C0.918479 8.75 0.600537 8.6183 0.366117 8.38388C0.131696 8.14946 0 7.83152 0 7.5ZM6.25 7.5C6.25 7.16848 6.3817 6.85054 6.61612 6.61612C6.85054 6.3817 7.16848 6.25 7.5 6.25H18.75C19.0815 6.25 19.3995 6.3817 19.6339 6.61612C19.8683 6.85054 20 7.16848 20 7.5C20 7.83152 19.8683 8.14946 19.6339 8.38388C19.3995 8.6183 19.0815 8.75 18.75 8.75H7.5C7.16848 8.75 6.85054 8.6183 6.61612 8.38388C6.3817 8.14946 6.25 7.83152 6.25 7.5ZM0 13.75C0 13.4185 0.131696 13.1005 0.366117 12.8661C0.600537 12.6317 0.918479 12.5 1.25 12.5H2.5C2.83152 12.5 3.14946 12.6317 3.38388 12.8661C3.6183 13.1005 3.75 13.4185 3.75 13.75C3.75 14.0815 3.6183 14.3995 3.38388 14.6339C3.14946 14.8683 2.83152 15 2.5 15H1.25C0.918479 15 0.600537 14.8683 0.366117 14.6339C0.131696 14.3995 0 14.0815 0 13.75ZM6.25 13.75C6.25 13.4185 6.3817 13.1005 6.61612 12.8661C6.85054 12.6317 7.16848 12.5 7.5 12.5H18.75C19.0815 12.5 19.3995 12.6317 19.6339 12.8661C19.8683 13.1005 20 13.4185 20 13.75C20 14.0815 19.8683 14.3995 19.6339 14.6339C19.3995 14.8683 19.0815 15 18.75 15H7.5C7.16848 15 6.85054 14.8683 6.61612 14.6339C6.3817 14.3995 6.25 14.0815 6.25 13.75Z" fill="#0D0D0D"/>
</svg>
