<svg width="46" height="47" viewBox="0 0 46 47" fill="none" xmlns="http://www.w3.org/2000/svg">
<path d="M3.2793 13L22.8458 24.5399L42.2793 13.0677M22.8458 45V24.5173" stroke="black" stroke-width="1.5" stroke-linecap="round" stroke-linejoin="round"/>
<path d="M18.1394 2.07986L6.19869 8.76153C3.49303 10.2688 1.2793 14.0484 1.2793 17.153V29.8639C1.2793 32.9685 3.49303 36.748 6.19869 38.2553L18.1394 44.937C20.6886 46.3543 24.87 46.3543 27.4192 44.937L39.3599 38.2553C42.0656 36.748 44.2793 32.9685 44.2793 29.8639V17.153C44.2793 14.0484 42.0656 10.2688 39.3599 8.76153L27.4192 2.07986C24.8477 0.640045 20.6886 0.640045 18.1394 2.07986V2.07986Z" stroke="black" stroke-width="1.5" stroke-linecap="round" stroke-linejoin="round"/>
<path d="M34.2793 27V18.5908L13.2793 6" stroke="black" stroke-width="1.5" stroke-linecap="round" stroke-linejoin="round"/>
</svg>
