<svg width="42" height="41" viewBox="0 0 42 41" fill="none" xmlns="http://www.w3.org/2000/svg">
<path d="M35.4537 37.5834C35.4537 30.9722 28.8766 25.6251 20.7791 25.6251C12.6816 25.6251 6.10449 30.9722 6.10449 37.5834M20.7791 20.5001C23.0445 20.5001 25.2171 19.6002 26.8189 17.9983C28.4208 16.3964 29.3207 14.2238 29.3207 11.9584C29.3207 9.69302 28.4208 7.52042 26.8189 5.91854C25.2171 4.31667 23.0445 3.41675 20.7791 3.41675C18.5137 3.41675 16.3411 4.31667 14.7392 5.91854C13.1373 7.52042 12.2374 9.69302 12.2374 11.9584C12.2374 14.2238 13.1373 16.3964 14.7392 17.9983C16.3411 19.6002 18.5137 20.5001 20.7791 20.5001V20.5001Z" stroke="black" stroke-width="1.5" stroke-linecap="round" stroke-linejoin="round"/>
</svg>
